<?xml version="1.0" encoding="utf-8"?>
<!-- Generator: Adobe Illustrator 25.0.1, SVG Export Plug-In . SVG Version: 6.00 Build 0)  -->
<svg version="1.1" id="Layer_1" xmlns="http://www.w3.org/2000/svg" xmlns:xlink="http://www.w3.org/1999/xlink" x="0px" y="0px"
	 viewBox="0 0 584 216.7" style="enable-background:new 0 0 584 216.7;" xml:space="preserve">
<style type="text/css">
	.st0{fill:#34374C;}
	.st1{fill:#EE2B47;}
</style>
<g>
	<g>
		<path class="st0" d="M195,118h-7.6v22.9h-15.9V71.3h27.9c13.2,0,23.9,10.6,23.9,23.9c0,8.6-5.2,16.3-12.8,20.2l14.8,25.6h-17.1
			L195,118z M187.5,104.1h11.9c4.4,0,8-3.9,8-9c0-5.1-3.6-9-8-9h-11.9V104.1z"/>
		<path class="st0" d="M255,129c4.1,0,7.6-1.6,9.6-3.8l11.9,6.9c-4.9,6.8-12.2,10.2-21.7,10.2c-17,0-27.6-11.4-27.6-26.3
			c0-14.8,10.7-26.3,26.5-26.3c14.5,0,25.3,11.2,25.3,26.3c0,2.1-0.2,4.1-0.6,6h-35.3C245,127.2,249.6,129,255,129z M264.2,110.9
			c-1.6-5.8-6.1-7.9-10.5-7.9c-5.7,0-9.5,2.8-10.8,7.9H264.2z"/>
		<path class="st0" d="M324.1,126c0,11.4-9.9,16.3-20.7,16.3c-9.9,0-17.5-3.8-21.4-11.8l12.9-7.4c1.3,3.8,4.1,5.9,8.5,5.9
			c3.6,0,5.4-1.1,5.4-3.1c0-5.5-24.5-2.6-24.5-19.8c0-10.8,9.2-16.3,19.5-16.3c8.1,0,15.2,3.6,19.4,10.6l-12.7,6.9
			c-1.4-2.6-3.4-4.4-6.7-4.4c-2.6,0-4.2,1-4.2,2.8C299.6,111.3,324.1,107.6,324.1,126z"/>
		<path class="st0" d="M382.1,91.2v49.7h-14.9v-4.7c-3.3,3.8-8.2,6.1-14.8,6.1c-13,0-23.8-11.4-23.8-26.3
			c0-14.8,10.7-26.3,23.8-26.3c6.7,0,11.5,2.3,14.8,6.1v-4.7H382.1z M367.2,116c0-7.5-5-12.1-11.8-12.1c-6.9,0-11.8,4.7-11.8,12.1
			c0,7.5,5,12.1,11.8,12.1C362.2,128.2,367.2,123.5,367.2,116z"/>
		<path class="st0" d="M446.5,116c0,14.8-10.7,26.3-23.8,26.3c-6.7,0-11.5-2.3-14.8-6.1v24.6H393V91.2h14.9v4.7
			c3.3-3.8,8.2-6.1,14.8-6.1C435.8,89.8,446.5,101.2,446.5,116z M431.6,116c0-7.5-5-12.1-11.8-12.1s-11.8,4.7-11.8,12.1
			c0,7.5,5,12.1,11.8,12.1S431.6,123.5,431.6,116z"/>
		<path class="st0" d="M508.5,116c0,14.8-10.7,26.3-23.8,26.3c-6.7,0-11.5-2.3-14.8-6.1v24.6H455V91.2h14.9v4.7
			c3.3-3.8,8.2-6.1,14.8-6.1C497.8,89.8,508.5,101.2,508.5,116z M493.6,116c0-7.5-5-12.1-11.8-12.1c-6.9,0-11.8,4.7-11.8,12.1
			c0,7.5,5,12.1,11.8,12.1C488.6,128.2,493.6,123.5,493.6,116z"/>
		<path class="st0" d="M562.2,91.2l-17,48.3c-5.6,15.8-14.4,22.1-28.4,21.4v-13.9c7,0,10.2-2.2,12.4-8.3l-19.8-47.5h16.4l11,30.4
			l9.4-30.4H562.2z"/>
	</g>
	<g>
		<g>
			<path class="st1" d="M51.3,179.8C5.3,132.7,10.5,40,72.3,26.9c51-10.8,91.9,46.3,58.8,90.2c-25.4,30.2-40.8,7.3-31.5-3.5
				c21.6-25.2,5.3-52.3-19-49.3c-34.2,7.8-30.8,72.7-11.2,102C75.9,177.8,60.6,189.3,51.3,179.8z"/>
		</g>
		<g>
			<path class="st1" d="M78.6,156.7c0,5.1-7.8,5.1-7.8,0C70.8,151.6,78.6,151.6,78.6,156.7z"/>
		</g>
	</g>
	<g>
		<g>
			<path class="st1" d="M143.3,149.5c-3.6,5.3-10.4,6.1-15.1,2.8c-5.6-4-11-8.6-15.8-13.3c5.5-1.1,12.7-4.7,21-13.4
				C139.8,134.4,149.4,140.6,143.3,149.5z"/>
		</g>
		<g>
			<path class="st1" d="M126.2,157.3c-7.7-5-14.8-11.2-21.1-18.1c-12.4-1.8-17.6-14.8-15.2-22c-2.3-4.5-4.3-9.1-6-13.9
				c-0.5-1.4,1.5-2.2,2.1-0.9c1.7,3.4,3.5,6.8,5.5,10.1c2.1-4.1,15.6-16.9,9.1-31.1c-4.1-9-15.9-13.3-24.8-7.3
				c-12.7,8.4-15.1,30.5-13.2,48.6c0.7,6.3,3.2,12.3,7.2,17.2c12.2,15,27.9,27.5,45.9,36C127.6,181.5,137.2,164.5,126.2,157.3z
				 M78.6,136.2c-7.8,0-7.8-11.8,0-11.8C86.4,124.5,86.4,136.2,78.6,136.2z M86.7,147.2c-4.2,0-4.2-6.3,0-6.3
				C90.8,140.9,90.8,147.2,86.7,147.2z"/>
		</g>
	</g>
	<g>
		<path class="st1" d="M78.6,156.7c0,5.1-7.8,5.1-7.8,0C70.8,151.5,78.6,151.5,78.6,156.7z"/>
	</g>
</g>
</svg>
