<?xml version="1.0" encoding="utf-8"?>
<!-- Generator: Adobe Illustrator 25.0.1, SVG Export Plug-In . SVG Version: 6.00 Build 0)  -->
<svg version="1.1" id="Layer_1" xmlns="http://www.w3.org/2000/svg" xmlns:xlink="http://www.w3.org/1999/xlink" x="0px" y="0px"
	 viewBox="0 0 408 290" style="enable-background:new 0 0 408 290;" xml:space="preserve">
<style type="text/css">
	.st0{fill:#34374C;}
	.st1{fill:#EE2B47;}
</style>
<g>
	<g>
		<path class="st0" d="M32.1,242.9h-7.6v22.9H8.6v-69.6h27.9c13.2,0,23.9,10.6,23.9,23.9c0,8.6-5.2,16.3-12.8,20.2l14.8,25.6H45.2
			L32.1,242.9z M24.6,228.9h11.9c4.4,0,8-3.9,8-9c0-5.1-3.6-9-8-9H24.6V228.9z"/>
		<path class="st0" d="M92.1,253.8c4.1,0,7.6-1.6,9.6-3.8l11.9,6.9c-4.9,6.8-12.2,10.2-21.7,10.2c-17,0-27.6-11.4-27.6-26.3
			c0-14.8,10.7-26.3,26.5-26.3c14.5,0,25.3,11.2,25.3,26.3c0,2.1-0.2,4.1-0.6,6H80.2C82.1,252,86.6,253.8,92.1,253.8z M101.3,235.7
			c-1.6-5.8-6.1-7.9-10.5-7.9c-5.7,0-9.5,2.8-10.8,7.9H101.3z"/>
		<path class="st0" d="M161.2,250.8c0,11.4-9.9,16.3-20.7,16.3c-9.9,0-17.5-3.8-21.4-11.8l12.9-7.4c1.3,3.8,4.1,5.9,8.5,5.9
			c3.6,0,5.4-1.1,5.4-3.1c0-5.5-24.5-2.6-24.5-19.8c0-10.8,9.2-16.3,19.5-16.3c8.1,0,15.2,3.6,19.4,10.6l-12.7,6.9
			c-1.4-2.6-3.4-4.4-6.7-4.4c-2.6,0-4.2,1-4.2,2.8C136.7,236.2,161.2,232.4,161.2,250.8z"/>
		<path class="st0" d="M219.2,216v49.7h-14.9v-4.7c-3.3,3.8-8.2,6.1-14.8,6.1c-13,0-23.8-11.4-23.8-26.3c0-14.8,10.7-26.3,23.8-26.3
			c6.7,0,11.5,2.3,14.8,6.1V216H219.2z M204.2,240.9c0-7.5-5-12.1-11.8-12.1c-6.9,0-11.8,4.7-11.8,12.1c0,7.5,5,12.1,11.8,12.1
			C199.3,253,204.2,248.3,204.2,240.9z"/>
		<path class="st0" d="M283.6,240.9c0,14.8-10.7,26.3-23.8,26.3c-6.7,0-11.5-2.3-14.8-6.1v24.6h-14.9V216H245v4.7
			c3.3-3.8,8.2-6.1,14.8-6.1C272.9,214.6,283.6,226.1,283.6,240.9z M268.7,240.9c0-7.5-5-12.1-11.8-12.1c-6.9,0-11.8,4.7-11.8,12.1
			c0,7.5,5,12.1,11.8,12.1C263.7,253,268.7,248.3,268.7,240.9z"/>
		<path class="st0" d="M345.6,240.9c0,14.8-10.7,26.3-23.8,26.3c-6.7,0-11.5-2.3-14.8-6.1v24.6h-14.9V216H307v4.7
			c3.3-3.8,8.2-6.1,14.8-6.1C334.9,214.6,345.6,226.1,345.6,240.9z M330.7,240.9c0-7.5-5-12.1-11.8-12.1c-6.9,0-11.8,4.7-11.8,12.1
			c0,7.5,5,12.1,11.8,12.1C325.7,253,330.7,248.3,330.7,240.9z"/>
		<path class="st0" d="M399.3,216l-17,48.3c-5.6,15.8-14.4,22.1-28.4,21.4v-13.9c7,0,10.2-2.2,12.4-8.3L346.6,216H363l11,30.4
			l9.4-30.4H399.3z"/>
	</g>
	<g>
		<g>
			<path class="st1" d="M160.8,173.4c-46-47.1-40.8-139.8,21-152.9c51-10.8,91.9,46.3,58.8,90.2c-25.4,30.2-40.8,7.3-31.5-3.5
				c21.6-25.2,5.3-52.3-19-49.3c-34.2,7.8-30.8,72.7-11.2,102C185.4,171.5,170.1,183,160.8,173.4z"/>
		</g>
		<g>
			<path class="st1" d="M188.1,150.4c0,5.1-7.8,5.1-7.8,0C180.3,145.3,188.1,145.2,188.1,150.4z"/>
		</g>
	</g>
	<g>
		<g>
			<path class="st1" d="M252.9,143.1c-3.6,5.3-10.4,6.1-15.1,2.8c-5.6-4-11-8.6-15.8-13.3c5.5-1.1,12.7-4.7,21-13.4
				C249.3,128,258.9,134.2,252.9,143.1z"/>
		</g>
		<g>
			<path class="st1" d="M235.7,151c-7.7-5-14.8-11.2-21.1-18.1c-12.4-1.8-17.6-14.8-15.2-22c-2.3-4.5-4.3-9.1-6-13.9
				c-0.5-1.4,1.5-2.2,2.1-0.9c1.7,3.4,3.5,6.8,5.5,10.1c2.1-4.1,15.6-16.9,9.1-31.1c-4.1-9-15.9-13.3-24.8-7.3
				c-12.7,8.4-15.1,30.5-13.2,48.6c0.7,6.3,3.2,12.3,7.2,17.2c12.2,15,27.9,27.5,45.9,36C237.1,175.2,246.7,158.2,235.7,151z
				 M188.1,129.9c-7.8,0-7.8-11.8,0-11.8C195.9,118.1,195.9,129.9,188.1,129.9z M196.2,140.8c-4.2,0-4.2-6.3,0-6.3
				C200.4,134.6,200.4,140.8,196.2,140.8z"/>
		</g>
	</g>
	<g>
		<path class="st1" d="M188.1,150.3c0,5.1-7.8,5.1-7.8,0C180.3,145.2,188.1,145.2,188.1,150.3z"/>
	</g>
</g>
</svg>
