<?xml version="1.0" standalone="no"?>
<!DOCTYPE svg PUBLIC "-//W3C//DTD SVG 20010904//EN"
 "http://www.w3.org/TR/2001/REC-SVG-20010904/DTD/svg10.dtd">
<svg version="1.0" xmlns="http://www.w3.org/2000/svg"
 width="279.000000pt" height="82.000000pt" viewBox="0 0 279.000000 82.000000"
 preserveAspectRatio="xMidYMid meet">

<g transform="translate(0.000000,82.000000) scale(0.100000,-0.100000)"
fill="#000000" stroke="none">
<path d="M257 810 c-132 -33 -223 -145 -249 -306 -23 -135 21 -306 108 -425
46 -61 78 -78 112 -60 33 18 35 45 8 98 -91 181 -80 410 25 481 27 19 43 23
82 19 53 -5 83 -26 103 -74 21 -49 17 -75 -21 -148 -39 -73 -39 -100 1 -116
53 -19 134 44 175 136 48 107 21 232 -68 316 -74 71 -183 102 -276 79z"/>
<path d="M272 557 c-11 -12 -29 -40 -38 -62 -23 -54 -24 -188 -2 -231 25 -47
147 -155 216 -192 60 -32 64 -33 87 -18 45 29 34 66 -36 122 -34 27 -72 54
-84 61 -47 27 -56 45 -80 168 l-6 30 16 -28 c20 -34 31 -28 57 30 22 51 18 86
-14 121 -29 30 -87 30 -116 -1z m54 -262 c7 -18 -13 -45 -33 -45 -17 0 -27 24
-19 45 7 20 45 19 52 0z m28 -74 c3 -5 -1 -14 -8 -20 -16 -13 -32 2 -21 19 8
12 22 13 29 1z"/>
<path d="M780 405 l0 -175 40 0 40 0 0 60 c0 51 3 60 18 60 11 0 29 -22 50
-60 33 -59 34 -60 77 -60 l44 0 -34 58 c-19 31 -35 60 -35 64 0 4 11 18 25 32
32 32 40 69 26 117 -18 61 -56 79 -163 79 l-88 0 0 -175z m175 71 c8 -24 6
-31 -14 -47 -13 -10 -36 -19 -52 -19 -28 0 -29 1 -29 51 l0 50 42 -3 c37 -3
44 -7 53 -32z"/>
<path d="M1144 476 c-69 -30 -99 -108 -68 -172 25 -49 62 -75 115 -81 44 -4
108 20 116 44 6 16 -44 33 -77 27 -39 -8 -80 3 -80 21 0 11 19 15 88 17 l87 3
-3 35 c-3 44 -24 75 -65 100 -37 23 -70 25 -113 6z m94 -68 c22 -22 13 -28
-43 -28 -53 0 -55 1 -45 20 12 23 68 28 88 8z"/>
<path d="M1404 476 c-34 -15 -44 -33 -44 -76 0 -32 18 -49 73 -70 22 -8 42
-21 45 -27 5 -16 -40 -17 -55 -2 -9 9 -20 9 -43 -1 -40 -16 -36 -39 10 -63 79
-41 180 6 166 76 -8 42 -22 55 -70 69 -22 6 -45 15 -50 19 -14 13 25 24 42 12
12 -7 24 -5 44 6 34 20 35 26 4 46 -34 23 -86 27 -122 11z"/>
<path d="M1665 480 c-31 -12 -64 -53 -75 -90 -29 -101 73 -200 159 -157 17 9
31 11 31 6 0 -5 18 -9 40 -9 l40 0 0 125 0 125 -40 0 c-22 0 -40 -4 -40 -9 0
-6 -12 -3 -27 5 -31 15 -58 17 -88 4z m93 -76 c34 -23 27 -83 -10 -104 -25
-13 -31 -13 -55 0 -38 21 -45 81 -11 104 12 9 29 16 38 16 9 0 26 -7 38 -16z"/>
<path d="M2018 476 c-16 -8 -28 -11 -28 -5 0 5 -16 9 -35 9 l-35 0 0 -175 0
-175 35 0 35 0 0 59 0 59 31 -15 c64 -32 136 7 160 85 10 35 9 48 -6 87 -9 25
-27 53 -40 61 -34 23 -86 27 -117 10z m70 -72 c44 -30 19 -114 -35 -114 -30 0
-63 34 -63 65 0 29 32 65 58 65 10 0 28 -7 40 -16z"/>
<path d="M2338 476 c-16 -8 -28 -11 -28 -5 0 5 -18 9 -40 9 l-40 0 0 -175 0
-175 40 0 40 0 0 59 0 59 31 -15 c87 -43 187 56 159 158 -20 74 -103 117 -162
85z m70 -72 c34 -23 27 -83 -10 -104 -25 -13 -31 -13 -55 0 -38 21 -45 81 -11
104 12 9 29 16 38 16 9 0 26 -7 38 -16z"/>
<path d="M2524 463 c4 -10 25 -64 48 -121 45 -109 45 -133 -1 -140 -17 -3 -21
-10 -21 -38 0 -30 3 -34 25 -34 43 0 82 27 103 72 18 36 102 264 102 275 0 2
-17 3 -38 3 l-38 0 -24 -75 c-26 -83 -29 -83 -61 13 l-21 62 -40 0 c-34 0 -39
-3 -34 -17z"/>
<path d="M560 286 c-7 -10 -29 -25 -48 -35 l-34 -18 43 -36 c49 -42 81 -47
103 -15 22 31 20 40 -17 83 -30 34 -34 36 -47 21z"/>
<path d="M263 154 c-7 -19 2 -28 22 -21 19 8 19 23 0 31 -9 3 -18 -1 -22 -10z"/>
</g>
</svg>
